<svg xmlns="http://www.w3.org/2000/svg" width="1440" height="794" fill="none"><mask id="a" width="1440" height="794" x="0" y="0" maskUnits="userSpaceOnUse" style="mask-type:alpha"><path fill="#E8E1DA" d="M0 736.25s118.975 52.669 205.5 56.813c98.202 4.705 139.282-52.459 237.5-56.813 112.499-4.987 163.429 59.761 276 56.813 103.638-2.714 148.328-56.269 252-56.813 105.34-.553 151.34 63.098 256.5 56.813 89-5.319 212.5-56.813 212.5-56.813V0H0v736.25z"/></mask><g mask="url(#a)"><path fill="#E8E1DA" d="M0 736.25s118.975 52.669 205.5 56.813c98.202 4.705 139.282-52.459 237.5-56.813 112.499-4.987 163.429 59.761 276 56.813 103.638-2.714 148.328-56.269 252-56.813 105.34-.553 151.34 63.098 256.5 56.813 89-5.319 212.5-56.813 212.5-56.813V0H0v736.25z"/><g fill="#BDA697" opacity=".3"><g clip-path="url(#b)"><path d="M35.102 582.726a33.41 33.41 0 0 0-41.31-20.109l-36.383 11.434c-20.598 6.028-22.374 35.855-2.625 44.27 10.592 4.809 21.69 3.587 32.887 9.29 11.804 5.494 18.203 14.444 28.262 20.476 18.735 9.656 40.468-10.108 32.587-29.684L35.1 582.726zm59.747-13.75c-8.81-6.654-21.531.558-28.013 8.948-19.877 26.061 5.44 45.198 25.636 20.364 8.523-10.707 9.566-23.605 2.377-29.312zm-48.881-4.491c9.69 4.717 22.932-2.463 29.51-15.978 14.87-33.01-18.33-49.171-35.112-17.093-6.58 13.515-4.062 28.367 5.602 33.071zM1.445 542.812c9.665 4.705 22.907-2.476 29.485-15.991 14.896-32.997-18.305-49.158-35.113-17.092-6.579 13.515-4.062 28.366 5.628 33.083z"/></g><g clip-path="url(#c)"><path d="M1399.26 237.618a33.928 33.928 0 0 0-42.84 18.474l-15.3 35.577c-9.01 19.846 12.77 40.97 32.33 31.344 10.72-4.967 17.13-14.317 28.94-19.158 12.04-5.446 23.17-4.442 34.48-8.188 19.84-8.024 19.02-37.843-1.26-44.744l-36.35-13.305zm28.99-55.093c-10.96 2.373-13.83 16.942-11.67 27.487 6.89 32.562 38.39 25.753 32.66-6.241-2.6-13.653-11.83-22.999-20.99-21.246zm-35.83 34.647c10.05-4.334 13.29-19.282 7.25-33.297-15.56-33.311-49.99-18.463-36.42 15.703 6.05 14.016 19.14 21.916 29.17 17.594zm-67.97 32.571c-6.16-8.824-18.75-16.721-28-10.382-16.68 12.808 8.46 49.292 26.81 41.506 10.21-4.814 9.81-18.91 1.19-31.124zm21.79-12.66c10.03-4.322 13.27-19.27 7.23-33.286-15.53-33.322-49.96-18.474-36.42 15.703 6.05 14.016 19.15 21.916 29.19 17.583z"/></g><path d="M361.252 118.008a14.384 14.384 0 0 0-19.642-2.374l-13.201 9.771c-7.536 5.35-4.064 17.74 5.158 18.387 4.988.468 9.333-1.59 14.693-.844 5.577.576 9.44 3.319 14.383 4.36 8.983 1.295 15.05-9.806 9.088-16.666l-10.479-12.634zm22.384-13.999c-4.521-1.47-8.685 3.255-10.143 7.581-4.425 13.404 8.571 17.632 13.298 4.684 1.964-5.557.574-10.953-3.155-12.265zm-20.527 5.047c4.608.557 8.988-4.228 9.764-10.654 1.41-15.527-14.376-17.436-16.695-2.019-.777 6.426 2.336 12.117 6.931 12.673zm-31.858-2.573c-.373-4.547-3.303-10.13-8.044-9.78-8.847 1.132-7.422 19.868.963 20.931 4.772.417 7.633-4.834 7.081-11.151zm10.688.013c4.596.556 8.976-4.229 9.752-10.655 1.422-15.526-14.364-17.434-16.695-2.019-.777 6.426 2.336 12.117 6.943 12.674zm714.041 612.187a19.23 19.23 0 0 0-12.5-6.818c-4.88-.591-9.81.713-13.76 3.643l-17.65 13.065c-10.07 7.154-5.43 23.719 6.9 24.585 6.67.625 12.48-2.127 19.64-1.129 7.46.77 12.62 4.437 19.23 5.829 12.01 1.731 20.12-13.111 12.15-22.282l-14.01-16.893zm29.93-18.718c-6.04-1.964-11.61 4.353-13.56 10.137-5.92 17.921 11.46 23.575 17.78 6.262 2.63-7.43.77-14.645-4.22-16.399zm-27.44 6.748c6.16.745 12.01-5.653 13.05-14.245 1.89-20.76-19.22-23.312-22.32-2.698-1.04 8.592 3.12 16.2 9.27 16.943zm-42.6-3.439c-.5-6.08-4.42-13.544-10.75-13.077-11.833 1.514-9.927 26.565 1.28 27.986 6.38.557 10.21-6.464 9.47-14.909zm14.29.017c6.15.743 12-5.655 13.04-14.247 1.9-20.758-19.21-23.309-22.32-2.698-1.04 8.592 3.12 16.2 9.28 16.945z"/></g></g><defs><clipPath id="b"><path fill="#fff" d="m-25.556 447.497 163.2 79.443L58.2 690.139-105 610.696z"/></clipPath><clipPath id="c"><path fill="#fff" d="m1254.995 194.731 169.247-72.984 72.984 169.248-169.247 72.983z"/></clipPath></defs></svg>